<?xml version="1.0" encoding="UTF-8"?> <svg xmlns="http://www.w3.org/2000/svg" width="171" height="32" viewBox="0 0 171 32"> <defs> <linearGradient id="a" x1="50%" x2="50%" y1="125.853%" y2="0%"> <stop offset="0%" stop-color="#F7172D"></stop> <stop offset="100%" stop-color="#F8CC15"></stop> </linearGradient> <linearGradient id="b" x1="50%" x2="50%" y1="125.853%" y2="0%"> <stop offset="0%" stop-color="#F7172D"></stop> <stop offset="100%" stop-color="#F8CC15"></stop> </linearGradient> <linearGradient id="c" x1="50%" x2="50%" y1="125.853%" y2="0%"> <stop offset="0%" stop-color="#F7172D"></stop> <stop offset="100%" stop-color="#F8CC15"></stop> </linearGradient> </defs> <g fill="none" fill-rule="nonzero"> <path fill="#FFF" d="M9.794 30.468H5.68V14.204H0v-3.392h15.488v3.392H9.794v16.264zm11.508-16.441v6.266h3.542c2.07 0 3.283-1.186 3.283-3.133 0-1.907-1.28-3.133-3.324-3.133h-3.5zm0 9.249v7.192h-4.114V10.812h8.05c4.523 0 7.112 2.384 7.112 6.266 0 2.52-1.308 4.7-3.57 5.585l4.142 7.805h-4.659l-3.664-7.192h-3.297zM43.34 10.47c5.817 0 9.48 3.91 9.48 10.176 0 6.252-3.663 10.162-9.48 10.162-5.83 0-9.48-3.91-9.48-10.162 0-6.266 3.65-10.176 9.48-10.176zm0 3.433c-3.215 0-5.285 2.615-5.285 6.743 0 4.114 2.057 6.715 5.285 6.715 3.215 0 5.272-2.601 5.272-6.715 0-4.128-2.057-6.743-5.272-6.743zm15.486 16.564h-3.937V10.812h3.433l9.18 12.804h.11v-8.37l3.937 8.961v6.261h-3.406l-9.195-12.873h-.122v12.873z"></path> <path fill="url(#a)" d="M102.022 30.809c-5.722 0-9.304-3.828-9.304-10.176 0-6.334 3.61-10.162 9.304-10.162 4.726 0 8.323 2.997 8.636 7.397h-4.005c-.381-2.411-2.234-3.991-4.631-3.991-3.106 0-5.109 2.601-5.109 6.743 0 4.195 1.976 6.783 5.122 6.783 2.439 0 4.196-1.43 4.632-3.76h4.004c-.463 4.387-3.827 7.166-8.65 7.166zm14.723-.34h-4.114V10.811h4.114v19.656zm11.508 0h-4.114V14.203h-5.68v-3.392h15.488v3.392h-5.694v16.264zm17.093 0h-4.114v-7.343l-6.838-12.314h4.481l4.4 8.39h.096l4.413-8.39h4.414l-6.852 12.314v7.342z"></path> <path fill="url(#b)" d="M64.9 0l22.855 2.754 7.182 7.516-15.138 17.962-.01.134-.095-.009-2.563 3.041L64.9 0zm23.668 12.734l-7.552 1.116-.738 8.72 8.29-9.836zM71.192 7.109l5.834 14.976.8-9.487-6.634-5.489zm15.829-.374l-2.966 3.349 5.402-.799-2.436-2.55zM72.909 4.27l6.874 5.686 3.888-4.389L72.909 4.27z"></path> <path fill="url(#c)" d="M165.072 20.933v5.953h-3.569v-5.953h-5.557V17.46h5.557v-5.885h3.57v5.885h5.557v3.473z"></path> </g> </svg> 