<?xml version="1.0" encoding="UTF-8"?> <!-- Generator: Adobe Illustrator 22.1.0, SVG Export Plug-In . SVG Version: 6.00 Build 0) --> <svg xmlns="http://www.w3.org/2000/svg" xmlns:xlink="http://www.w3.org/1999/xlink" id="Layer_1" x="0px" y="0px" viewBox="0 0 469 168" style="enable-background:new 0 0 469 168;" xml:space="preserve"> <style type="text/css"> .st0{fill:url(#SVGID_1_);} .st1{clip-path:url(#SVGID_3_);fill:#FFFFFF;} .st2{opacity:0.2;clip-path:url(#SVGID_3_);fill:url(#SVGID_4_);} .st3{fill:#FF564F;} .st4{fill:#FFFFFF;} </style> <image style="display:none;overflow:visible;" width="517" height="254" xlink:href="A969C2BA.jpg" transform="matrix(1 0 0 1 -17.3108 53.015)"> </image> <g> <g> <linearGradient id="SVGID_1_" gradientUnits="userSpaceOnUse" x1="76.942" y1="27.3485" x2="76.942" y2="145.7322"> <stop offset="0" style="stop-color:#FF604A"></stop> <stop offset="1" style="stop-color:#3F51B5"></stop> </linearGradient> <polygon class="st0" points="142.9,122.1 142.9,46 76.9,7.9 11,46 11,122.1 76.9,160.1 "></polygon> <g> <defs> <polygon id="SVGID_2_" points="142.9,122.1 142.9,46 76.9,7.9 11,46 11,122.1 76.9,160.1 "></polygon> </defs> <clipPath id="SVGID_3_"> <use xlink:href="#SVGID_2_" style="overflow:visible;"></use> </clipPath> <path id="android-brain_1_" class="st1" d="M73.2,117.2c-2.1,2.7-1.6,6.7,1.2,8.8c2.8,2.1,6.7,1.6,8.8-1.2 c2.1-2.7,1.6-6.7-1.2-8.8S75.3,114.4,73.2,117.2L73.2,117.2z M43.3,94.2c2.1-2.7,1.6-6.7-1.2-8.8s-6.7-1.6-8.8,1.2 c-2.1,2.7-1.6,6.7,1.2,8.8S41.1,96.9,43.3,94.2L43.3,94.2z M111.5,67.3c-2.1,2.7-1.6,6.7,1.2,8.8s6.7,1.6,8.8-1.2 c2.1-2.7,1.6-6.7-1.2-8.8C117.6,64,113.6,64.5,111.5,67.3L111.5,67.3z M51.4,145.5l11-14.3c-3.1-4.8-3.8-10.6-2.1-16l-11.8-9.1 c-6.5,4.2-15.2,4.2-21.7-0.8C18.5,99,17,87.1,23.3,78.9c5-6.5,13.4-8.8,20.8-6.4l27.5-35.9c2.1-2.8,6.1-3.3,8.8-1.2l25.9,19.9 c4.7-3.1,10.6-3.9,16-2.1l12.2-15.9c2.1-2.8,6.1-3.3,8.8-1.2c2.8,2.1,3.3,6.1,1.2,8.8l-12.2,15.9c4.2,6.5,4.2,15.2-0.8,21.7 c-6.3,8.3-18.2,9.8-26.5,3.5c-6.5-5-8.8-13.4-6.4-20.8l-20.9-16L54,80.1c3.1,4.8,3.8,10.6,2.1,16l11.8,9.1 c6.5-4.2,15.2-4.2,21.7,0.8c8.3,6.3,9.8,18.2,3.5,26.5c-5,6.5-13.4,8.8-20.8,6.4l-10,13L51.4,145.5z"></path> <linearGradient id="SVGID_4_" gradientUnits="userSpaceOnUse" x1="32.4752" y1="5.8078" x2="69.6749" y2="70.5821"> <stop offset="0" style="stop-color:#FFFFFF"></stop> <stop offset="1" style="stop-color:#FFFFFF;stop-opacity:0"></stop> </linearGradient> <polygon class="st2" points="11.4,45.9 77.7,88.9 77.7,7.8 "></polygon> </g> </g> <g> <path class="st3" d="M183.5,72.1c-2.8-0.8-5-1.7-6.6-2.9l3.2-6.4c1.6,1.1,3.5,1.9,5.8,2.6c2.3,0.6,4.5,1,6.7,1c5,0,7.5-1.3,7.5-4 c0-1.2-0.6-2.1-1.9-2.6c-1.3-0.5-3.3-1-6.1-1.4c-2.9-0.4-5.3-1-7.2-1.5c-1.9-0.6-3.5-1.6-4.8-3.1c-1.4-1.4-2-3.5-2-6.1 c0-3.4,1.4-6.1,4.3-8.1c2.8-2,6.7-3,11.5-3c2.5,0,4.9,0.3,7.4,0.8c2.5,0.6,4.5,1.3,6,2.2l-3.2,6.4c-3-1.8-6.4-2.7-10.2-2.7 c-2.5,0-4.3,0.4-5.6,1.1c-1.3,0.7-1.9,1.7-1.9,2.9c0,1.3,0.7,2.3,2,2.8c1.4,0.6,3.5,1.1,6.3,1.6c2.9,0.4,5.2,1,7,1.5 c1.8,0.6,3.4,1.6,4.7,2.9c1.3,1.4,2,3.3,2,5.9c0,3.3-1.5,6-4.4,8c-2.9,2-6.9,3-11.9,3C189.1,73.3,186.3,72.9,183.5,72.1z"></path> <path class="st3" d="M270,40.6c2.6,2.6,4,6.5,4,11.7v20.5h-8.4V53.4c0-3.1-0.7-5.5-2.1-7.1c-1.4-1.6-3.4-2.4-6-2.4 c-2.8,0-5.1,0.9-6.8,2.8c-1.7,1.9-2.5,4.5-2.5,7.9v18.1h-8.4V53.4c0-3.1-0.7-5.5-2.1-7.1s-3.4-2.4-6-2.4c-2.9,0-5.1,0.9-6.8,2.7 c-1.7,1.8-2.5,4.5-2.5,8v18.1h-8.4V37.1h8v4.6c1.3-1.6,3-2.8,5-3.7s4.2-1.3,6.7-1.3c2.7,0,5.1,0.5,7.1,1.5c2.1,1,3.7,2.5,4.9,4.5 c1.5-1.9,3.4-3.3,5.7-4.4c2.3-1,4.9-1.6,7.7-1.6C263.8,36.7,267.3,38,270,40.6z"></path> <path class="st3" d="M318.6,37.1v35.8h-8v-4.6c-1.4,1.7-3.1,3-5.1,3.8c-2,0.8-4.3,1.3-6.7,1.3c-3.5,0-6.6-0.8-9.3-2.3 c-2.7-1.5-4.9-3.7-6.4-6.4c-1.5-2.8-2.3-6-2.3-9.6c0-3.7,0.8-6.9,2.3-9.6c1.5-2.7,3.7-4.9,6.4-6.4c2.7-1.5,5.9-2.3,9.3-2.3 c2.3,0,4.5,0.4,6.4,1.2c1.9,0.8,3.6,2,5.1,3.5v-4.4H318.6z M307.3,63c2-2.1,3-4.8,3-8.1c0-3.3-1-6-3-8.1c-2-2.1-4.6-3.1-7.6-3.1 c-3.1,0-5.6,1-7.6,3.1c-2,2.1-3,4.8-3,8.1c0,3.3,1,6,3,8.1c2,2.1,4.5,3.1,7.6,3.1C302.8,66.1,305.3,65.1,307.3,63z"></path> <path class="st3" d="M348.9,36.7v8c-0.7-0.1-1.4-0.2-1.9-0.2c-3.3,0-5.8,1-7.6,2.8c-1.8,1.9-2.7,4.6-2.7,8.2v17.3h-8.4V37.1h8v5.2 C338.6,38.5,342.8,36.7,348.9,36.7z"></path> <path class="st3" d="M374.7,70.9c-1,0.8-2.2,1.4-3.6,1.8s-2.9,0.6-4.5,0.6c-3.9,0-7-1-9.1-3.1c-2.1-2.1-3.2-5-3.2-9V29.2h8.4v8.2 h9.6V44h-9.6v17c0,1.7,0.4,3.1,1.3,4c0.9,0.9,2.1,1.4,3.6,1.4c1.9,0,3.4-0.5,4.7-1.5L374.7,70.9z"></path> <path class="st4" d="M187.4,129.2c-2.9-1.6-5.2-3.7-6.9-6.5c-1.7-2.8-2.5-5.9-2.5-9.5c0-3.5,0.8-6.7,2.5-9.4 c1.6-2.8,3.9-4.9,6.9-6.5c2.9-1.6,6.3-2.3,10-2.3c3.5,0,6.6,0.7,9.3,2.1c2.7,1.4,4.7,3.5,6,6.2l-6.4,3.7c-1-1.6-2.3-2.9-3.9-3.7 c-1.5-0.8-3.2-1.2-5.1-1.2c-3.1,0-5.7,1-7.8,3c-2.1,2-3.1,4.7-3.1,8.1c0,3.4,1,6.1,3.1,8.1c2,2,4.6,3.1,7.8,3.1 c1.8,0,3.5-0.4,5.1-1.2c1.5-0.8,2.8-2.1,3.9-3.7l6.4,3.7c-1.4,2.7-3.4,4.7-6.1,6.2c-2.7,1.5-5.7,2.2-9.2,2.2 C193.7,131.5,190.4,130.7,187.4,129.2z"></path> <path class="st4" d="M224.3,129.2c-2.9-1.6-5.2-3.7-6.8-6.5c-1.6-2.8-2.4-5.9-2.4-9.5c0-3.5,0.8-6.7,2.4-9.4s3.9-4.9,6.8-6.5 c2.9-1.6,6.2-2.3,9.8-2.3c3.7,0,6.9,0.8,9.8,2.3c2.9,1.6,5.2,3.7,6.8,6.5s2.4,5.9,2.4,9.4c0,3.5-0.8,6.7-2.4,9.5 c-1.6,2.8-3.9,5-6.8,6.5c-2.9,1.6-6.2,2.3-9.8,2.3C230.5,131.5,227.2,130.7,224.3,129.2z M241.7,121.3c2-2.1,3-4.8,3-8.1 s-1-6-3-8.1c-2-2.1-4.6-3.1-7.6-3.1c-3.1,0-5.6,1-7.6,3.1c-2,2.1-3,4.8-3,8.1s1,6,3,8.1c2,2.1,4.5,3.1,7.6,3.1 C237.2,124.3,239.7,123.3,241.7,121.3z"></path> <path class="st4" d="M291,98.8c2.7,2.6,4.1,6.5,4.1,11.7V131h-8.4v-19.4c0-3.1-0.7-5.5-2.2-7.1c-1.5-1.6-3.6-2.4-6.3-2.4 c-3.1,0-5.5,0.9-7.3,2.8c-1.8,1.9-2.7,4.5-2.7,8V131h-8.4V95.3h8v4.6c1.4-1.6,3.1-2.9,5.2-3.7c2.1-0.8,4.5-1.3,7.1-1.3 C284.6,94.9,288.3,96.2,291,98.8z"></path> <path class="st4" d="M324.5,129.1c-1,0.8-2.2,1.4-3.6,1.8c-1.4,0.4-2.9,0.6-4.5,0.6c-3.9,0-7-1-9.1-3.1c-2.1-2.1-3.2-5-3.2-9V87.4 h8.4v8.2h9.6v6.7h-9.6v17c0,1.7,0.4,3.1,1.3,4c0.9,0.9,2.1,1.4,3.6,1.4c1.9,0,3.4-0.5,4.7-1.5L324.5,129.1z"></path> <path class="st4" d="M350.7,94.9v8c-0.7-0.1-1.4-0.2-1.9-0.2c-3.3,0-5.8,1-7.6,2.8c-1.8,1.9-2.7,4.6-2.7,8.2V131H330V95.3h8v5.2 C340.4,96.8,344.6,94.9,350.7,94.9z"></path> <path class="st4" d="M391.1,95.3V131h-8v-4.6c-1.4,1.7-3.1,3-5.1,3.8c-2,0.8-4.3,1.3-6.7,1.3c-3.5,0-6.6-0.8-9.3-2.3 c-2.7-1.5-4.9-3.7-6.4-6.4c-1.5-2.8-2.3-6-2.3-9.6s0.8-6.9,2.3-9.6c1.5-2.7,3.7-4.9,6.4-6.4c2.7-1.5,5.9-2.3,9.3-2.3 c2.3,0,4.5,0.4,6.4,1.2c1.9,0.8,3.6,2,5.1,3.5v-4.4H391.1z M379.8,121.3c2-2.1,3-4.8,3-8.1s-1-6-3-8.1c-2-2.1-4.6-3.1-7.6-3.1 c-3.1,0-5.6,1-7.6,3.1c-2,2.1-3,4.8-3,8.1s1,6,3,8.1c2,2.1,4.5,3.1,7.6,3.1C375.3,124.3,377.8,123.3,379.8,121.3z"></path> <path class="st4" d="M407.1,129.2c-2.9-1.6-5.2-3.7-6.9-6.5c-1.7-2.8-2.5-5.9-2.5-9.5c0-3.5,0.8-6.7,2.5-9.4 c1.6-2.8,3.9-4.9,6.9-6.5c2.9-1.6,6.3-2.3,10-2.3c3.5,0,6.6,0.7,9.3,2.1c2.7,1.4,4.7,3.5,6,6.2l-6.4,3.7c-1-1.6-2.3-2.9-3.9-3.7 c-1.5-0.8-3.2-1.2-5.1-1.2c-3.1,0-5.7,1-7.8,3s-3.1,4.7-3.1,8.1c0,3.4,1,6.1,3.1,8.1c2,2,4.6,3.1,7.8,3.1c1.8,0,3.5-0.4,5.1-1.2 c1.5-0.8,2.8-2.1,3.9-3.7l6.4,3.7c-1.4,2.7-3.4,4.7-6.1,6.2c-2.7,1.5-5.7,2.2-9.2,2.2C413.4,131.5,410.1,130.7,407.1,129.2z"></path> <path class="st4" d="M458,129.1c-1,0.8-2.2,1.4-3.6,1.8c-1.4,0.4-2.9,0.6-4.5,0.6c-3.9,0-7-1-9.1-3.1c-2.1-2.1-3.2-5-3.2-9V87.4 h8.4v8.2h9.6v6.7H446v17c0,1.7,0.4,3.1,1.3,4c0.9,0.9,2.1,1.4,3.6,1.4c1.9,0,3.4-0.5,4.7-1.5L458,129.1z"></path> </g> </g> </svg> 